<svg width="155" height="57" viewBox="0 0 155 57" fill="none" xmlns="http://www.w3.org/2000/svg">
<path d="M17.865 45.45C15.615 45.45 13.5 45.045 11.52 44.235C9.57 43.395 7.845 42.225 6.345 40.725C4.875 39.225 3.72 37.5 2.88 35.55C2.07 33.57 1.665 31.44 1.665 29.16C1.665 26.85 2.085 24.72 2.925 22.77C3.765 20.79 4.935 19.065 6.435 17.595C7.935 16.095 9.69 14.94 11.7 14.13C13.71 13.29 15.885 12.87 18.225 12.87C20.835 12.87 23.235 13.365 25.425 14.355C27.615 15.315 29.43 16.68 30.87 18.45L26.73 22.59C25.74 21.3 24.51 20.31 23.04 19.62C21.57 18.93 19.95 18.585 18.18 18.585C16.17 18.585 14.385 19.035 12.825 19.935C11.295 20.805 10.095 22.035 9.225 23.625C8.355 25.185 7.92 27.015 7.92 29.115C7.92 31.215 8.34 33.075 9.18 34.695C10.05 36.285 11.22 37.53 12.69 38.43C14.19 39.33 15.9 39.78 17.82 39.78C19.8 39.78 21.495 39.42 22.905 38.7C24.315 37.95 25.395 36.87 26.145 35.46C26.895 34.02 27.27 32.265 27.27 30.195L31.275 32.94L17.46 32.805V27.495H33.57V28.35C33.57 32.13 32.895 35.295 31.545 37.845C30.195 40.365 28.335 42.27 25.965 43.56C23.625 44.82 20.925 45.45 17.865 45.45ZM47.8494 45.45C45.6594 45.45 43.6794 44.955 41.9094 43.965C40.1694 42.945 38.7744 41.58 37.7244 39.87C36.7044 38.13 36.1944 36.195 36.1944 34.065C36.1944 31.935 36.7044 30.03 37.7244 28.35C38.7444 26.64 40.1394 25.29 41.9094 24.3C43.6794 23.28 45.6444 22.77 47.8044 22.77C50.0244 22.77 52.0044 23.28 53.7444 24.3C55.5144 25.29 56.9094 26.64 57.9294 28.35C58.9494 30.03 59.4594 31.935 59.4594 34.065C59.4594 36.195 58.9494 38.13 57.9294 39.87C56.9094 41.58 55.5144 42.945 53.7444 43.965C52.0044 44.955 50.0394 45.45 47.8494 45.45ZM47.8044 39.96C48.9144 39.96 49.8894 39.72 50.7294 39.24C51.5994 38.73 52.2594 38.04 52.7094 37.17C53.1894 36.27 53.4294 35.25 53.4294 34.11C53.4294 32.97 53.1894 31.965 52.7094 31.095C52.2294 30.225 51.5694 29.55 50.7294 29.07C49.8894 28.56 48.9144 28.305 47.8044 28.305C46.7244 28.305 45.7644 28.56 44.9244 29.07C44.0844 29.55 43.4244 30.225 42.9444 31.095C42.4644 31.965 42.2244 32.97 42.2244 34.11C42.2244 35.25 42.4644 36.27 42.9444 37.17C43.4244 38.04 44.0844 38.73 44.9244 39.24C45.7644 39.72 46.7244 39.96 47.8044 39.96ZM77.1145 45L68.6995 33.795L77.0695 23.265H83.8645L74.0545 35.145L74.2795 32.265L84.3145 45H77.1145ZM63.2545 45V12.465H69.1495V45H63.2545ZM95.5079 45.45C93.5879 45.45 91.8779 45.045 90.3779 44.235C88.9079 43.425 87.7529 42.3 86.9129 40.86C86.0729 39.42 85.6529 37.755 85.6529 35.865V23.265H91.5929V35.73C91.5929 36.63 91.7429 37.41 92.0429 38.07C92.3429 38.7 92.7929 39.18 93.3929 39.51C93.9929 39.84 94.6979 40.005 95.5079 40.005C96.7379 40.005 97.6979 39.63 98.3879 38.88C99.0779 38.13 99.4229 37.08 99.4229 35.73V23.265H105.318V35.865C105.318 37.785 104.898 39.465 104.058 40.905C103.248 42.345 102.093 43.47 100.593 44.28C99.1229 45.06 97.4279 45.45 95.5079 45.45ZM110.012 45V12.465H115.907V45H110.012Z" fill="#1E1E1E"/>
<circle cx="130" cy="40" r="5" fill="#EC1552"/>
</svg>
